<svg xmlns="http://www.w3.org/2000/svg" version="1.1" xmlns:xlink="http://www.w3.org/1999/xlink" xmlns:svgjs="http://svgjs.dev/svgjs" width="1000" height="269" viewBox="0 0 1000 269"><g transform="matrix(1,0,0,1,0.1066666666666265,-0.480737623762451)"><svg viewBox="0 0 375 101" data-background-color="#ffffff" preserveAspectRatio="xMidYMid meet" height="269" width="1000" xmlns="http://www.w3.org/2000/svg" xmlns:xlink="http://www.w3.org/1999/xlink"><g id="tight-bounds" transform="matrix(1,0,0,1,-0.03976036071776434,0.18070532226565206)"><svg viewBox="0 0 375.07952880859375 100.63859558105469" height="100.63859558105469" width="375.07952880859375"><g><svg></svg></g><g><svg viewBox="0 0 375.07952880859375 100.63859558105469" height="100.63859558105469" width="375.07952880859375"><g transform="matrix(1,0,0,1,-10.220239639282227,-75.90420532226562)"><path xmlns="http://www.w3.org/2000/svg" d="M10.22 171.296v-95.392h375.08v95.392l-244.854 0 0-3.183 241.671 0v-89.026h-368.714v89.026h22.063l0 3.183z" fill="#332885" fill-rule="nonzero" stroke="none" stroke-width="1" stroke-linecap="butt" stroke-linejoin="miter" stroke-miterlimit="10" stroke-dasharray="" stroke-dashoffset="0" font-family="none" font-weight="none" font-size="none" text-anchor="none" style="mix-blend-mode: normal" data-fill-palette-color="tertiary"></path><g><path xmlns="http://www.w3.org/2000/svg" d="M49.826 170.71h-0.519c0 0.681 0.325 1.022 0.974 1.022v0c0.377 0 0.87-0.129 1.478-0.386 0.608-0.256 0.928-0.384 0.959-0.384v0c0.199 0 0.461 0.299 0.786 0.896 0.325 0.597 0.487 1.038 0.488 1.321v0c0 0.409-0.419 0.718-1.258 0.927-0.838 0.21-1.658 0.314-2.459 0.315-0.803 0-1.474-0.063-2.012-0.189-0.541-0.126-0.981-0.286-1.321-0.481-0.342-0.193-0.64-0.431-0.896-0.714-0.258-0.283-0.45-0.553-0.575-0.811-0.126-0.256-0.225-0.541-0.299-0.855v0c-0.105-0.461-0.157-0.938-0.157-1.431v0c0-1.907 0.498-3.223 1.493-3.946v0c0.493-0.367 1.043-0.624 1.651-0.77 0.608-0.147 1.326-0.22 2.154-0.22v0c2.652 0 3.977 0.922 3.977 2.767v0c0 1.96-1.488 2.94-4.464 2.939zM49.275 168.415v0 1.038c0.304 0 0.553-0.121 0.749-0.362 0.193-0.241 0.289-0.534 0.289-0.88v0c0-0.629-0.162-0.943-0.487-0.943v0c-0.367 0-0.55 0.383-0.551 1.147zM61.946 171.276v0h-6.367c-0.115 0-0.215-0.097-0.298-0.292-0.084-0.193-0.126-0.471-0.126-0.833 0-0.361 0.115-0.726 0.346-1.098 0.231-0.373 0.456-0.56 0.676-0.559v0h6.319c0.272 0 0.409 0.341 0.409 1.022v0c0 0.346-0.11 0.725-0.33 1.138-0.22 0.415-0.43 0.623-0.629 0.622zM72.007 173.603c-0.314 0.231-0.751 0.421-1.311 0.572-0.562 0.153-1.285 0.23-2.169 0.23-0.887 0-1.728-0.073-2.525-0.22-0.797-0.147-1.368-0.309-1.713-0.488-0.346-0.178-0.519-0.351-0.519-0.518v0c0-0.587 0.084-1.198 0.251-1.833 0.168-0.633 0.367-0.95 0.598-0.95v0c0.042 0 0.477 0.141 1.305 0.424 0.828 0.283 1.452 0.424 1.87 0.425 0.419 0 0.692-0.045 0.818-0.135 0.126-0.088 0.189-0.216 0.188-0.384 0-0.168-0.115-0.318-0.345-0.449-0.231-0.13-0.519-0.245-0.865-0.346-0.346-0.099-0.72-0.242-1.123-0.431-0.405-0.189-0.78-0.398-1.125-0.629-0.346-0.231-0.634-0.559-0.865-0.984-0.231-0.423-0.346-0.908-0.346-1.453v0c0-2.327 1.389-3.49 4.166-3.49v0c1.038 0 1.934 0.065 2.689 0.195 0.755 0.132 1.287 0.279 1.597 0.441 0.308 0.164 0.462 0.324 0.462 0.481v0c0 0.545-0.128 1.132-0.384 1.76-0.258 0.629-0.507 0.943-0.748 0.944v0c-0.042 0-0.178-0.047-0.409-0.142v0c-0.692-0.304-1.265-0.456-1.719-0.456-0.457 0-0.766 0.042-0.928 0.126-0.164 0.084-0.245 0.212-0.245 0.384 0 0.174 0.115 0.315 0.346 0.424 0.231 0.111 0.517 0.211 0.858 0.299 0.34 0.09 0.712 0.226 1.116 0.408 0.402 0.184 0.777 0.399 1.123 0.645 0.346 0.247 0.634 0.596 0.864 1.047 0.231 0.451 0.346 0.975 0.346 1.572v0c0 0.629-0.162 1.2-0.487 1.714v0c-0.199 0.314-0.456 0.587-0.771 0.817zM79.318 173.886v0-4.37c0-0.786-0.031-1.357-0.095-1.714-0.063-0.356-0.215-0.534-0.456-0.534v0c-0.21 0-0.314 0.141-0.314 0.424v0 6.194c0 0.115-0.304 0.206-0.912 0.274-0.608 0.069-1.231 0.104-1.871 0.103-0.639 0-1.043-0.029-1.21-0.088-0.168-0.057-0.252-0.153-0.252-0.289v0-10.894c0-0.22 0.304-0.44 0.912-0.661 0.608-0.22 1.247-0.33 1.918-0.33v0c0.702 0 1.148 0.131 1.336 0.393v0c0.063 0.084 0.094 0.173 0.095 0.267v0 2.311l-0.173 1.085h0.11c0.147-0.22 0.377-0.414 0.691-0.582v0c0.587-0.314 1.226-0.472 1.918-0.471v0c0.996 0 1.67 0.317 2.022 0.949 0.35 0.635 0.525 1.665 0.525 3.091v0 4.842c0 0.115-0.306 0.206-0.918 0.274-0.614 0.069-1.238 0.104-1.871 0.103-0.635 0-1.037-0.029-1.204-0.088-0.168-0.057-0.252-0.153-0.251-0.289zM89.505 174.405v0c-0.786 0-1.462-0.068-2.028-0.205-0.566-0.136-1.079-0.377-1.541-0.723v0c-0.954-0.692-1.431-1.981-1.431-3.867v0c0-1.677 0.487-2.877 1.462-3.6v0c0.912-0.671 2.091-1.006 3.538-1.006v0c0.618 0 1.148 0.028 1.587 0.085 0.44 0.059 0.889 0.182 1.346 0.371 0.455 0.189 0.822 0.445 1.1 0.77 0.277 0.325 0.504 0.772 0.683 1.343 0.178 0.572 0.267 1.251 0.267 2.037v0c0 1.593-0.451 2.79-1.352 3.591-0.901 0.803-2.112 1.204-3.631 1.204zM88.954 171.339c0.073 0.377 0.15 0.603 0.23 0.676 0.078 0.073 0.182 0.11 0.314 0.11 0.13 0 0.235-0.037 0.315-0.11 0.078-0.073 0.151-0.299 0.22-0.676 0.067-0.377 0.101-0.852 0.1-1.424 0-0.57-0.013-1.01-0.037-1.321-0.027-0.308-0.059-0.546-0.095-0.713-0.038-0.168-0.088-0.299-0.151-0.393v0c-0.094-0.136-0.206-0.204-0.336-0.205-0.132 0-0.24 0.039-0.324 0.117-0.084 0.08-0.162 0.31-0.236 0.691-0.073 0.384-0.11 0.926-0.11 1.629 0 0.702 0.037 1.242 0.11 1.619zM95.431 176.166v0-9.999c0-0.22 0.293-0.445 0.881-0.676 0.587-0.231 1.221-0.346 1.902-0.346v0c0.314 0 0.561 0.037 0.739 0.11 0.178 0.073 0.288 0.147 0.33 0.22v0c0.042 0.073 0.121 0.388 0.236 0.944v0h0.125c0.021-0.094 0.115-0.241 0.283-0.44 0.168-0.199 0.339-0.362 0.513-0.488 0.172-0.126 0.42-0.239 0.745-0.339 0.325-0.099 0.705-0.148 1.141-0.148 0.434 0 0.829 0.096 1.186 0.289 0.356 0.195 0.621 0.42 0.795 0.676 0.172 0.258 0.308 0.583 0.409 0.975 0.099 0.394 0.156 0.708 0.173 0.943 0.015 0.237 0.022 0.577 0.022 1.022 0 0.446-0.016 0.887-0.047 1.32-0.031 0.436-0.089 0.879-0.173 1.33-0.084 0.451-0.204 0.838-0.362 1.164-0.157 0.325-0.356 0.618-0.597 0.88v0c-0.482 0.524-1.19 0.786-2.123 0.786v0c-0.335 0-0.631-0.05-0.886-0.151-0.258-0.099-0.45-0.216-0.576-0.352v0c-0.262-0.283-0.414-0.534-0.456-0.755v0l-0.015-0.157h-0.126l0.22 1.415v1.777c0 0.115-0.301 0.208-0.902 0.276-0.604 0.067-1.222 0.101-1.855 0.101-0.635 0-1.057-0.028-1.267-0.085-0.21-0.059-0.314-0.156-0.315-0.292zM100.65 169.657c0-0.891-0.047-1.514-0.141-1.871-0.094-0.356-0.236-0.534-0.424-0.534-0.189 0-0.325 0.105-0.409 0.314v0 4.119c0 0.272 0.141 0.409 0.424 0.409v0c0.367 0 0.55-0.812 0.55-2.437zM105.854 176.166v0-9.999c0-0.22 0.293-0.445 0.88-0.676 0.587-0.231 1.221-0.346 1.903-0.346v0c0.314 0 0.561 0.037 0.738 0.11 0.178 0.073 0.288 0.147 0.331 0.22v0c0.042 0.073 0.121 0.388 0.235 0.944v0h0.126c0.021-0.094 0.115-0.241 0.283-0.44 0.168-0.199 0.339-0.362 0.513-0.488 0.172-0.126 0.42-0.239 0.745-0.339 0.325-0.099 0.705-0.148 1.141-0.148 0.434 0 0.829 0.096 1.185 0.289 0.356 0.195 0.621 0.42 0.796 0.676 0.172 0.258 0.308 0.583 0.409 0.975 0.099 0.394 0.156 0.708 0.173 0.943 0.015 0.237 0.022 0.577 0.022 1.022 0 0.446-0.016 0.887-0.048 1.32-0.031 0.436-0.089 0.879-0.173 1.33-0.084 0.451-0.204 0.838-0.361 1.164-0.157 0.325-0.356 0.618-0.597 0.88v0c-0.482 0.524-1.19 0.786-2.123 0.786v0c-0.335 0-0.631-0.05-0.886-0.151-0.258-0.099-0.45-0.216-0.576-0.352v0c-0.262-0.283-0.414-0.534-0.456-0.755v0l-0.015-0.157h-0.126l0.22 1.415v1.777c0 0.115-0.301 0.208-0.902 0.276-0.604 0.067-1.222 0.101-1.856 0.101-0.635 0-1.057-0.028-1.267-0.085-0.21-0.059-0.314-0.156-0.314-0.292zM111.073 169.657c0-0.891-0.047-1.514-0.141-1.871-0.094-0.356-0.236-0.534-0.425-0.534-0.189 0-0.325 0.105-0.408 0.314v0 4.119c0 0.272 0.141 0.409 0.424 0.409v0c0.367 0 0.55-0.812 0.55-2.437zM120.6 166.136v0 7.75c0 0.115-0.301 0.206-0.902 0.274-0.604 0.069-1.222 0.104-1.855 0.103-0.635 0-1.044-0.029-1.227-0.088-0.184-0.057-0.277-0.153-0.276-0.289v0-7.467c0-0.231 0.297-0.459 0.89-0.686 0.591-0.224 1.238-0.336 1.939-0.336v0c0.954 0 1.431 0.246 1.431 0.739zM118.462 162.001v0c0.692 0 1.235 0.103 1.629 0.308 0.392 0.203 0.588 0.572 0.588 1.107v0c0 0.943-0.734 1.415-2.201 1.415-1.467 0-2.201-0.472-2.201-1.415 0-0.943 0.728-1.415 2.185-1.415zM126.432 170.71h-0.518c0 0.681 0.325 1.022 0.974 1.022v0c0.377 0 0.87-0.129 1.478-0.386 0.608-0.256 0.928-0.384 0.959-0.384v0c0.199 0 0.461 0.299 0.786 0.896 0.325 0.597 0.487 1.038 0.487 1.321v0c0 0.409-0.419 0.718-1.257 0.927-0.838 0.21-1.658 0.314-2.459 0.315-0.803 0-1.474-0.063-2.012-0.189-0.541-0.126-0.981-0.286-1.321-0.481-0.342-0.193-0.64-0.431-0.896-0.714-0.258-0.283-0.45-0.553-0.575-0.811-0.126-0.256-0.225-0.541-0.299-0.855v0c-0.105-0.461-0.157-0.938-0.157-1.431v0c0-1.907 0.498-3.223 1.493-3.946v0c0.493-0.367 1.043-0.624 1.651-0.77 0.608-0.147 1.326-0.22 2.154-0.22v0c2.652 0 3.977 0.922 3.977 2.767v0c0 1.96-1.488 2.94-4.465 2.939zM125.882 168.415v0 1.038c0.304 0 0.553-0.121 0.748-0.362 0.193-0.241 0.289-0.534 0.29-0.88v0c0-0.629-0.162-0.943-0.488-0.943v0c-0.367 0-0.55 0.383-0.55 1.147z" fill="#332885" fill-rule="nonzero" stroke="none" stroke-width="1" stroke-linecap="butt" stroke-linejoin="miter" stroke-miterlimit="10" stroke-dasharray="" stroke-dashoffset="0" font-family="none" font-weight="none" font-size="none" text-anchor="none" style="mix-blend-mode: normal" data-fill-palette-color="secondary"></path></g></g><g transform="matrix(1,0,0,1,29.331764404296877,32.67169517614826)"><svg viewBox="0 0 316.416 35.29520522875817" height="35.29520522875817" width="316.416"><g><svg viewBox="0 0 316.416 35.29520522875817" height="35.29520522875817" width="316.416"><g><svg viewBox="0 0 316.416 35.29520522875817" height="35.29520522875817" width="316.416"><g><svg viewBox="0 0 316.416 35.29520522875817" height="35.29520522875817" width="316.416"><g id="textblocktransform"><svg viewBox="0 0 316.416 35.29520522875817" height="35.29520522875817" width="316.416" id="textblock"><g><svg viewBox="0 0 316.416 35.29520522875817" height="35.29520522875817" width="316.416"><g transform="matrix(1,0,0,1,0,0)"><svg width="316.416" viewBox="4 -28.75 344.2300109863281 38.400001525878906" height="35.29520522875817" data-palette-color="#332885"><path d="M34.2-18.55L34.2-12.85 28.3-9.4 20.3-9.4 20.3-13.25 27.85-13.25 27.85-17.35 20.3-17.35 20.3-22.05 28.3-22.05 34.2-18.55ZM27.65-6.95L34.2-6.95 34.2-3.45 28.3 0 20.3 0 20.3-5.3 27.65-5.3 27.65-6.95ZM4-18.55L4-3.45 9.9 0 17.85 0 17.85-5.3 10.3-5.3 10.3-9.4 17.85-9.4 17.85-13.25 10.3-13.25 10.3-17.35 17.85-17.35 17.85-22.05 9.9-22.05 4-18.55ZM54-14.8L54-14.8 54-12.35 42.2-12.35 42.2-14.8 54-14.8ZM76.49-14.75L76.49-25.3 82.19-28.75 92.49-28.75 92.49-22.85 82.59-22.85 82.59-17.2 92.49-17.2 92.49-11.35 82.19-11.35 76.49-14.75ZM110.94-3.4L110.94-13.75 105.04-17.2 94.74-17.2 94.74-11.35 104.64-11.35 104.64-5.65 94.94-5.65 94.94 0 105.04 0 110.94-3.4ZM76.49-9.1L82.79-9.1 82.79-5.65 92.49-5.65 92.49 0 82.34 0 76.49-3.4 76.49-9.1ZM104.64-19.45L110.94-19.45 110.94-25.3 105.04-28.75 94.74-28.75 94.74-22.85 104.64-22.85 104.64-19.45ZM115.84 0.05L115.84-28.75 121.99-28.75 121.99-22 129.59-22 129.59-17.2 121.99-17.2 121.99 0.05 115.84 0.05ZM145.59 0.05L145.59-18.55 139.94-22 131.79-22 131.79-17.2 139.29-17.2 139.29 0.05 145.59 0.05ZM150.49-3.5L150.49-18.55 156.34-22 164.24-22 164.24-17.3 156.74-17.3 156.74-5.4 164.24-5.4 164.24-0.05 156.34-0.05 150.49-3.5ZM179.84-3.5L179.84-18.55 173.99-22 166.04-22 166.04-17.3 173.59-17.3 173.59-5.4 166.04-5.4 166.04-0.05 173.99-0.05 179.84-3.5ZM218.69-18.55L218.69-6.4 213.09-3 205.19-3 205.19-7 212.44-7 212.44-17.3 204.89-17.3 204.89-22 213.09-22 218.69-18.55ZM188.84 9.65L188.84-22 202.69-22 202.69-17.3 195.19-17.3 195.19-7 202.44-7 202.44-3 195.19-3 195.19 9.65 188.84 9.65ZM257.53-18.55L257.53-6.4 251.93-3 244.03-3 244.03-7 251.28-7 251.28-17.3 243.73-17.3 243.73-22 251.93-22 257.53-18.55ZM227.68 9.65L227.68-22 241.53-22 241.53-17.3 234.03-17.3 234.03-7 241.28-7 241.28-3 234.03-3 234.03 9.65 227.68 9.65ZM265.53-22L271.83-22 271.83 0.05 265.53 0.05 265.53-22ZM271.73-28.7L271.73-24.05 265.53-24.05 265.53-28.7 271.73-28.7ZM310.03-18.55L310.03-12.85 304.13-9.4 296.13-9.4 296.13-13.25 303.68-13.25 303.68-17.35 296.13-17.35 296.13-22.05 304.13-22.05 310.03-18.55ZM303.48-6.95L310.03-6.95 310.03-3.45 304.13 0 296.13 0 296.13-5.3 303.48-5.3 303.48-6.95ZM279.83-18.55L279.83-3.45 285.73 0 293.68 0 293.68-5.3 286.13-5.3 286.13-9.4 293.68-9.4 293.68-13.25 286.13-13.25 286.13-17.35 293.68-17.35 293.68-22.05 285.73-22.05 279.83-18.55ZM348.23-18.55L348.23-12.85 342.33-9.4 334.33-9.4 334.33-13.25 341.88-13.25 341.88-17.35 334.33-17.35 334.33-22.05 342.33-22.05 348.23-18.55ZM341.68-6.95L348.23-6.95 348.23-3.45 342.33 0 334.33 0 334.33-5.3 341.68-5.3 341.68-6.95ZM318.03-18.55L318.03-3.45 323.93 0 331.88 0 331.88-5.3 324.33-5.3 324.33-9.4 331.88-9.4 331.88-13.25 324.33-13.25 324.33-17.35 331.88-17.35 331.88-22.05 323.93-22.05 318.03-18.55Z" opacity="1" transform="matrix(1,0,0,1,0,0)" fill="#332885" class="wordmark-text-0" data-fill-palette-color="primary" id="text-0"></path></svg></g></svg></g></svg></g></svg></g></svg></g></svg></g></svg></g></svg></g><defs></defs></svg><rect width="375.07952880859375" height="100.63859558105469" fill="none" stroke="none" visibility="hidden"></rect></g></svg></g></svg>